<?xml version="1.0" encoding="utf-8"?>
<!-- Generator: Adobe Illustrator 23.0.3, SVG Export Plug-In . SVG Version: 6.00 Build 0)  -->
<svg version="1.1" id="Layer_1" xmlns="http://www.w3.org/2000/svg" xmlns:xlink="http://www.w3.org/1999/xlink" x="0px" y="0px"
	 viewBox="0 0 400 600" style="enable-background:new 0 0 400 600;" xml:space="preserve">
<g>
	<rect style="fill:#EEEEEE;" width="400" height="100"/>
</g>
<g>
	<rect y="99.5" style="fill:#AAAAAA;" width="400" height="1"/>
</g>
<g>
	<path style="fill:#00AEEF;" d="M26.03,73.53c-0.51,0-1.02-0.2-1.41-0.59l-12.5-12.5c-0.78-0.78-0.78-2.05,0-2.83l12.5-12.5
		c0.78-0.78,2.05-0.78,2.83,0c0.78,0.78,0.78,2.05,0,2.83L16.36,59.03l11.09,11.09c0.78,0.78,0.78,2.05,0,2.83
		C27.05,73.33,26.54,73.53,26.03,73.53z"/>
</g>
<g>
	<path d="M39.18,22.92h-1.69v-6.53l-2.02,0.63v-1.38L39,14.38h0.18V22.92z"/>
	<path d="M43.68,17.91h0.9c0.43,0,0.75-0.11,0.96-0.32s0.31-0.5,0.31-0.86c0-0.34-0.1-0.61-0.31-0.8s-0.49-0.29-0.85-0.29
		c-0.32,0-0.6,0.09-0.81,0.27s-0.33,0.41-0.33,0.69h-1.69c0-0.45,0.12-0.84,0.36-1.2s0.58-0.63,1.01-0.83s0.91-0.3,1.43-0.3
		c0.9,0,1.61,0.22,2.12,0.65s0.77,1.03,0.77,1.78c0,0.39-0.12,0.75-0.36,1.08s-0.55,0.58-0.94,0.76c0.48,0.17,0.84,0.43,1.08,0.77
		s0.35,0.75,0.35,1.22c0,0.76-0.28,1.37-0.83,1.82s-1.28,0.69-2.19,0.69c-0.85,0-1.55-0.22-2.09-0.67s-0.81-1.04-0.81-1.78h1.69
		c0,0.32,0.12,0.58,0.36,0.79s0.54,0.3,0.89,0.3c0.4,0,0.72-0.11,0.95-0.32s0.34-0.5,0.34-0.85c0-0.85-0.47-1.28-1.41-1.28h-0.9
		V17.91z"/>
	<path d="M48.99,17.29c0-0.27,0.09-0.49,0.27-0.66s0.41-0.25,0.68-0.25c0.28,0,0.51,0.08,0.69,0.25s0.27,0.39,0.27,0.66
		c0,0.27-0.09,0.48-0.27,0.65s-0.41,0.25-0.69,0.25c-0.28,0-0.51-0.08-0.69-0.25S48.99,17.56,48.99,17.29z M48.99,22.09
		c0-0.27,0.09-0.49,0.27-0.66s0.41-0.25,0.68-0.25c0.28,0,0.51,0.08,0.69,0.25s0.27,0.39,0.27,0.66c0,0.27-0.09,0.48-0.27,0.65
		s-0.41,0.25-0.69,0.25c-0.28,0-0.51-0.08-0.69-0.25S48.99,22.36,48.99,22.09z"/>
	<path d="M53.95,17.91h0.9c0.43,0,0.75-0.11,0.96-0.32s0.31-0.5,0.31-0.86c0-0.34-0.1-0.61-0.31-0.8s-0.49-0.29-0.85-0.29
		c-0.32,0-0.6,0.09-0.81,0.27s-0.33,0.41-0.33,0.69h-1.69c0-0.45,0.12-0.84,0.36-1.2s0.58-0.63,1.01-0.83s0.91-0.3,1.43-0.3
		c0.9,0,1.61,0.22,2.12,0.65s0.77,1.03,0.77,1.78c0,0.39-0.12,0.75-0.36,1.08s-0.55,0.58-0.94,0.76c0.48,0.17,0.84,0.43,1.08,0.77
		s0.35,0.75,0.35,1.22c0,0.76-0.28,1.37-0.83,1.82s-1.28,0.69-2.19,0.69c-0.85,0-1.55-0.22-2.09-0.67s-0.81-1.04-0.81-1.78h1.69
		c0,0.32,0.12,0.58,0.36,0.79s0.54,0.3,0.89,0.3c0.4,0,0.72-0.11,0.95-0.32s0.34-0.5,0.34-0.85c0-0.85-0.47-1.28-1.41-1.28h-0.9
		V17.91z"/>
	<path d="M64.91,15.34l-3.3,7.59h-1.79l3.3-7.17h-4.24v-1.37h6.02V15.34z"/>
</g>
<g>
	<path d="M285,40H115c-8.25,0-15-6.75-15-15V0h200v25C300,33.25,293.25,40,285,40z"/>
</g>
<g>
	<rect x="309" y="12.5" width="4.04" height="10.5"/>
</g>
<g>
	<rect x="314.65" y="11.45" width="4.04" height="11.55"/>
</g>
<g>
	<rect x="320.31" y="10.3" width="4.04" height="12.7"/>
</g>
<g>
	<rect x="325.96" y="9.02" width="4.04" height="13.98"/>
</g>
<g>
</g>
<g>
	<circle cx="350.5" cy="19.5" r="3.5"/>
</g>
<g>
	<path d="M354.39,16.61c-2.14-2.14-5.63-2.14-7.78,0l-1.41-1.41c2.92-2.92,7.68-2.92,10.61,0L354.39,16.61z"/>
</g>
<g>
	<path d="M355.77,13.23c-2.9-2.9-7.63-2.9-10.54,0l-1.41-1.41c3.68-3.68,9.68-3.68,13.36,0L355.77,13.23z"/>
</g>
<g>
	<polygon style="fill:#888888;" points="392.91,13.74 391.87,13.74 391.87,12 371,12 371,20 391.87,20 391.87,17.91 392.91,17.91 	
		"/>
</g>
<g>
	<rect x="371.83" y="12.8" width="19.2" height="6.4"/>
</g>
<g>
	<circle cx="200" cy="62" r="15"/>
</g>
<g>
	<path d="M183.42,83.38h0.26v4.95c0,0.69-0.19,1.23-0.56,1.64s-0.87,0.61-1.49,0.61c-0.66,0-1.17-0.18-1.52-0.53
		s-0.53-0.86-0.53-1.52h0.26c0,0.58,0.15,1.02,0.45,1.33s0.74,0.46,1.34,0.46c0.52,0,0.95-0.17,1.28-0.52s0.5-0.82,0.51-1.42V83.38z
		"/>
	<path d="M185.07,87.75c0-0.5,0.1-0.96,0.29-1.36s0.47-0.72,0.82-0.94s0.75-0.34,1.2-0.34c0.44,0,0.84,0.11,1.19,0.33
		s0.63,0.53,0.82,0.93s0.3,0.85,0.3,1.35v0.23c0,0.51-0.1,0.96-0.29,1.36s-0.46,0.71-0.82,0.94s-0.75,0.34-1.2,0.34
		s-0.85-0.11-1.2-0.33s-0.63-0.53-0.82-0.93s-0.29-0.85-0.3-1.35V87.75z M185.34,87.95c0,0.44,0.09,0.84,0.26,1.21
		s0.42,0.65,0.73,0.86s0.67,0.31,1.07,0.31c0.6,0,1.09-0.23,1.47-0.68s0.57-1.04,0.57-1.75v-0.15c0-0.43-0.09-0.83-0.26-1.2
		s-0.42-0.66-0.73-0.86s-0.66-0.31-1.06-0.31c-0.6,0-1.09,0.23-1.47,0.69s-0.57,1.04-0.57,1.73V87.95z"/>
	<path d="M191.24,86.44c0.17-0.41,0.43-0.73,0.76-0.97s0.71-0.36,1.11-0.36c0.57,0,0.99,0.16,1.26,0.48s0.41,0.8,0.42,1.45v3.45
		h-0.26v-3.45c0-0.57-0.12-0.98-0.35-1.26s-0.59-0.41-1.08-0.41c-0.46,0-0.85,0.16-1.18,0.49s-0.56,0.74-0.68,1.25v3.38h-0.26v-7.5
		h0.26V86.44z"/>
	<path d="M196.71,86.44c0.17-0.41,0.43-0.73,0.76-0.97s0.71-0.36,1.11-0.36c0.57,0,0.99,0.16,1.26,0.48s0.41,0.8,0.42,1.45v3.45H200
		v-3.45c0-0.57-0.12-0.98-0.35-1.26s-0.59-0.41-1.08-0.41c-0.46,0-0.85,0.16-1.18,0.49s-0.56,0.74-0.68,1.25v3.38h-0.26v-5.28h0.26
		V86.44z"/>
	<path d="M204.45,90.49v-7.11h1.97c0.55,0,1.05,0.13,1.49,0.39s0.8,0.63,1.05,1.1s0.38,1,0.39,1.58v0.92c0,0.59-0.13,1.13-0.37,1.6
		c-0.25,0.48-0.6,0.85-1.04,1.11s-0.94,0.4-1.49,0.41H204.45z M204.72,83.64v6.58h1.7c0.5,0,0.95-0.12,1.36-0.36
		c0.41-0.24,0.73-0.58,0.96-1.02s0.35-0.92,0.35-1.45v-0.91c0-0.53-0.11-1.01-0.34-1.45c-0.23-0.43-0.54-0.77-0.95-1.02
		c-0.4-0.25-0.85-0.37-1.34-0.38H204.72z"/>
	<path d="M210.46,87.75c0-0.5,0.1-0.96,0.29-1.36c0.19-0.4,0.47-0.72,0.82-0.94c0.35-0.22,0.75-0.34,1.2-0.34
		c0.44,0,0.84,0.11,1.19,0.33s0.63,0.53,0.82,0.93c0.2,0.4,0.3,0.85,0.3,1.35v0.23c0,0.51-0.1,0.96-0.29,1.36s-0.46,0.71-0.82,0.94
		c-0.35,0.22-0.75,0.34-1.2,0.34s-0.85-0.11-1.2-0.33c-0.35-0.22-0.63-0.53-0.82-0.93s-0.29-0.85-0.3-1.35V87.75z M210.72,87.95
		c0,0.44,0.09,0.84,0.26,1.21c0.17,0.37,0.42,0.65,0.73,0.86c0.31,0.21,0.67,0.31,1.07,0.31c0.6,0,1.09-0.23,1.47-0.68
		c0.38-0.45,0.57-1.04,0.57-1.75v-0.15c0-0.43-0.09-0.83-0.26-1.2s-0.42-0.66-0.73-0.86c-0.31-0.21-0.66-0.31-1.06-0.31
		c-0.6,0-1.09,0.23-1.47,0.69s-0.57,1.04-0.57,1.73V87.95z"/>
	<path d="M218.26,90.59c-0.43,0-0.82-0.11-1.17-0.34c-0.36-0.23-0.64-0.54-0.84-0.94s-0.3-0.84-0.3-1.33v-0.22
		c0-0.49,0.1-0.94,0.29-1.34s0.46-0.72,0.81-0.95s0.71-0.34,1.12-0.34c0.59,0,1.07,0.21,1.45,0.63s0.56,0.97,0.56,1.66v0.28h-3.96
		v0.29c0,0.43,0.09,0.83,0.27,1.19c0.18,0.37,0.43,0.65,0.75,0.86c0.32,0.21,0.66,0.31,1.03,0.31c0.36,0,0.66-0.06,0.91-0.18
		c0.25-0.12,0.47-0.3,0.66-0.55l0.19,0.13C219.62,90.3,219.04,90.59,218.26,90.59z M218.16,85.37c-0.51,0-0.95,0.19-1.31,0.57
		s-0.57,0.87-0.63,1.46h3.68v-0.06c0-0.36-0.08-0.69-0.23-1c-0.15-0.31-0.36-0.55-0.63-0.72C218.79,85.46,218.49,85.37,218.16,85.37
		z"/>
</g>
</svg>
